<?xml version="1.0" encoding="UTF-8"?>
<svg xmlns="http://www.w3.org/2000/svg" xmlns:xlink="http://www.w3.org/1999/xlink" width="673px" height="738px" viewBox="0 0 337 369" version="1.1">
<defs>
<filter id="alpha" filterUnits="objectBoundingBox" x="0%" y="0%" width="100%" height="100%">
  <feColorMatrix type="matrix" in="SourceGraphic" values="0 0 0 0 1 0 0 0 0 1 0 0 0 0 1 0 0 0 1 0"/>
</filter>
<mask id="mask0">
  <g filter="url(#alpha)">
<rect x="0" y="0" width="337" height="369" style="fill:rgb(0%,0%,0%);fill-opacity:0.101961;stroke:none;"/>
  </g>
</mask>
<clipPath id="clip1">
  <rect x="0" y="0" width="337" height="369"/>
</clipPath>
<g id="surface5" clip-path="url(#clip1)">
<path style=" stroke:none;fill-rule:nonzero;fill:rgb(100%,100%,100%);fill-opacity:1;" d="M 169.027344 0.671875 C 148.070312 -2.15625 126.898438 4.027344 110.769531 17.679688 C 94.640625 31.335938 85.070312 51.179688 84.433594 72.285156 C 84.417969 72.621094 84.414062 72.953125 84.410156 73.289062 C 90.902344 72.359375 97.621094 71.5625 104.523438 70.898438 C 106.261719 35.027344 133.382812 5.5 169.027344 0.671875 Z M 169.027344 0.671875 "/>
</g>
</defs>
<g id="surface1">
<path style=" stroke:none;fill-rule:nonzero;fill:rgb(42.352941%,38.823529%,100%);fill-opacity:1;" d="M 233.847656 74.902344 C 210.503906 71.183594 183.917969 69.195312 156.230469 69.195312 C 130.894531 69.195312 106.484375 70.855469 84.636719 73.988281 C 84.640625 73.652344 84.644531 73.316406 84.660156 72.980469 C 85.863281 32.539062 119.175781 0.453125 159.695312 0.699219 C 200.210938 0.945312 233.128906 33.4375 233.835938 73.890625 C 233.84375 74.230469 233.847656 74.566406 233.847656 74.902344 Z M 233.847656 74.902344 "/>
<use xlink:href="#surface5" mask="url(#mask0)"/>
<path style=" stroke:none;fill-rule:nonzero;fill:rgb(24.705882%,23.921569%,33.72549%);fill-opacity:1;" d="M 266.484375 80.8125 C 255.738281 77.902344 244.839844 75.59375 233.835938 73.890625 C 215.804688 71.101562 197.621094 69.355469 179.386719 68.667969 C 171.789062 68.355469 164.054688 68.195312 156.230469 68.195312 C 150.03125 68.195312 143.882812 68.296875 137.820312 68.496094 C 120.03125 69.023438 102.285156 70.519531 84.660156 72.980469 C 71.613281 74.777344 58.695312 77.390625 45.976562 80.8125 C 16.328125 88.996094 0 99.96875 0 111.695312 C 0 123.425781 16.328125 134.398438 45.976562 142.582031 C 66.828125 148.34375 92.539062 152.265625 120.550781 154.066406 C 132.109375 154.816406 144.0625 155.195312 156.230469 155.195312 C 168.441406 155.195312 180.433594 154.8125 192.03125 154.0625 C 217.523438 152.417969 241.109375 149.011719 260.847656 144.0625 C 260.953125 144.03125 261.050781 144.007812 261.15625 143.980469 C 262.488281 143.652344 263.800781 143.308594 265.097656 142.960938 C 265.5625 142.832031 266.023438 142.707031 266.484375 142.582031 C 266.511719 142.570312 266.539062 142.5625 266.566406 142.558594 C 267.007812 142.4375 267.441406 142.3125 267.878906 142.191406 C 268.75 141.941406 269.609375 141.695312 270.457031 141.441406 C 270.496094 141.433594 270.53125 141.421875 270.566406 141.410156 C 271.300781 141.191406 272.023438 140.972656 272.738281 140.753906 C 273.324219 140.566406 273.90625 140.386719 274.480469 140.203125 C 274.902344 140.066406 275.320312 139.933594 275.730469 139.796875 C 276.03125 139.695312 276.324219 139.601562 276.617188 139.503906 C 277.011719 139.371094 277.40625 139.238281 277.796875 139.101562 C 277.960938 139.046875 278.128906 138.992188 278.289062 138.933594 C 278.664062 138.808594 279.027344 138.675781 279.394531 138.546875 C 279.789062 138.40625 280.1875 138.261719 280.578125 138.121094 C 280.902344 138.007812 281.226562 137.886719 281.546875 137.765625 C 281.816406 137.660156 282.082031 137.5625 282.355469 137.460938 C 283.089844 137.1875 283.8125 136.902344 284.523438 136.621094 C 284.878906 136.476562 285.234375 136.335938 285.582031 136.191406 C 285.929688 136.050781 286.28125 135.90625 286.621094 135.761719 C 287.179688 135.527344 287.730469 135.292969 288.273438 135.058594 C 288.53125 134.9375 288.796875 134.820312 289.054688 134.710938 C 289.25 134.621094 289.441406 134.535156 289.636719 134.445312 C 289.773438 134.386719 289.914062 134.320312 290.050781 134.257812 C 290.554688 134.027344 291.058594 133.792969 291.546875 133.558594 C 293.429688 132.65625 295.1875 131.738281 296.820312 130.796875 C 307.0625 124.941406 312.464844 118.445312 312.464844 111.695312 C 312.464844 99.96875 296.132812 88.996094 266.484375 80.8125 Z M 266.214844 141.621094 C 245.339844 147.386719 219.5625 151.3125 191.472656 153.097656 C 180.050781 153.820312 168.246094 154.195312 156.230469 154.195312 C 144.257812 154.195312 132.492188 153.828125 121.105469 153.101562 C 92.972656 151.320312 67.15625 147.398438 46.25 141.621094 C 17.070312 133.5625 1 122.9375 1 111.695312 C 1.003906 110.703125 1.128906 109.714844 1.371094 108.753906 C 3.925781 98.613281 19.632812 89.121094 46.25 81.773438 C 58.867188 78.378906 71.6875 75.777344 84.636719 73.988281 C 102.367188 71.511719 120.21875 70.007812 138.113281 69.488281 C 144.082031 69.292969 150.121094 69.195312 156.230469 69.195312 C 163.949219 69.195312 171.578125 69.351562 179.082031 69.652344 C 197.421875 70.335938 215.710938 72.089844 233.847656 74.902344 C 244.753906 76.59375 255.5625 78.890625 266.214844 81.773438 C 292.824219 89.121094 308.527344 98.605469 311.085938 108.742188 C 311.335938 109.707031 311.460938 110.699219 311.460938 111.695312 C 311.460938 122.9375 295.394531 133.5625 266.214844 141.621094 Z M 266.214844 141.621094 "/>
<path style=" stroke:none;fill-rule:nonzero;fill:rgb(24.705882%,23.921569%,33.72549%);fill-opacity:1;" d="M 312.179688 112.152344 C 312.179688 118.832031 306.664062 125.152344 296.820312 130.796875 C 295.183594 131.738281 293.421875 132.65625 291.546875 133.558594 C 291.058594 133.792969 290.554688 134.027344 290.050781 134.257812 C 289.914062 134.320312 289.773438 134.386719 289.636719 134.445312 C 289.4375 134.535156 289.25 134.621094 289.054688 134.710938 C 288.796875 134.820312 288.53125 134.9375 288.273438 135.058594 C 287.730469 135.292969 287.179688 135.527344 286.621094 135.761719 C 286.28125 135.90625 285.929688 136.050781 285.582031 136.191406 C 285.234375 136.335938 284.878906 136.476562 284.523438 136.621094 C 283.8125 136.902344 283.089844 137.1875 282.355469 137.460938 C 282.082031 137.5625 281.816406 137.660156 281.546875 137.765625 C 281.226562 137.886719 280.902344 138.007812 280.578125 138.121094 C 280.1875 138.261719 279.789062 138.40625 279.394531 138.546875 C 279.027344 138.675781 278.664062 138.808594 278.289062 138.933594 C 278.128906 138.992188 277.960938 139.046875 277.796875 139.101562 C 277.40625 139.238281 277.011719 139.371094 276.617188 139.503906 C 276.324219 139.601562 276.03125 139.695312 275.730469 139.796875 C 275.320312 139.933594 274.902344 140.066406 274.480469 140.203125 C 273.90625 140.386719 273.324219 140.566406 272.738281 140.753906 C 272.023438 140.972656 271.300781 141.191406 270.566406 141.410156 C 270.53125 141.421875 270.496094 141.433594 270.457031 141.441406 C 269.609375 141.695312 268.75 141.941406 267.878906 142.191406 C 267.441406 142.3125 267.007812 142.4375 266.566406 142.558594 C 266.539062 142.5625 266.511719 142.570312 266.484375 142.582031 C 266.023438 142.707031 265.5625 142.832031 265.097656 142.960938 C 263.804688 143.300781 262.488281 143.648438 261.15625 143.980469 C 261.050781 144.007812 260.953125 144.03125 260.847656 144.0625 C 241.644531 148.851562 218.082031 152.34375 192.011719 154.027344 C 180.589844 154.761719 168.679688 155.152344 156.445312 155.152344 C 144.105469 155.152344 132.097656 154.757812 120.582031 154.007812 C 51.863281 149.53125 0.714844 132.492188 0.714844 112.152344 C 0.722656 110.914062 0.910156 109.683594 1.277344 108.503906 C 1.308594 108.585938 1.335938 108.667969 1.371094 108.753906 C 8.515625 127.492188 59.226562 142.636719 125.027344 146.332031 C 135.105469 146.902344 145.546875 147.195312 156.230469 147.195312 C 166.960938 147.195312 177.441406 146.898438 187.5625 146.328125 C 253.304688 142.617188 303.964844 127.46875 311.085938 108.742188 C 311.207031 108.441406 311.3125 108.140625 311.402344 107.84375 C 311.910156 109.222656 312.171875 110.679688 312.179688 112.152344 Z M 312.179688 112.152344 "/>
<path style=" stroke:none;fill-rule:nonzero;fill:rgb(24.705882%,23.921569%,33.72549%);fill-opacity:1;" d="M 45.902344 106.769531 C 37.570312 106.769531 28.710938 104.980469 28.710938 101.660156 C 28.710938 98.34375 37.570312 96.554688 45.902344 96.554688 C 54.238281 96.554688 63.09375 98.34375 63.09375 101.660156 C 63.09375 104.980469 54.238281 106.769531 45.902344 106.769531 Z M 45.902344 97.554688 C 36.363281 97.554688 29.714844 99.71875 29.714844 101.660156 C 29.714844 103.605469 36.363281 105.769531 45.902344 105.769531 C 55.445312 105.769531 62.09375 103.605469 62.09375 101.660156 C 62.09375 99.71875 55.445312 97.554688 45.902344 97.554688 Z M 45.902344 97.554688 "/>
<path style=" stroke:none;fill-rule:nonzero;fill:rgb(24.705882%,23.921569%,33.72549%);fill-opacity:1;" d="M 81.457031 130.269531 C 73.121094 130.269531 64.265625 128.480469 64.265625 125.160156 C 64.265625 121.84375 73.121094 120.054688 81.457031 120.054688 C 89.789062 120.054688 98.644531 121.84375 98.644531 125.160156 C 98.644531 128.480469 89.789062 130.269531 81.457031 130.269531 Z M 81.457031 121.054688 C 71.914062 121.054688 65.265625 123.21875 65.265625 125.160156 C 65.265625 127.105469 71.914062 129.269531 81.457031 129.269531 C 90.996094 129.269531 97.644531 127.105469 97.644531 125.160156 C 97.644531 123.21875 90.996094 121.054688 81.457031 121.054688 Z M 81.457031 121.054688 "/>
<path style=" stroke:none;fill-rule:nonzero;fill:rgb(24.705882%,23.921569%,33.72549%);fill-opacity:1;" d="M 266.230469 106.769531 C 257.894531 106.769531 249.039062 104.980469 249.039062 101.660156 C 249.039062 98.34375 257.894531 96.554688 266.230469 96.554688 C 274.5625 96.554688 283.421875 98.34375 283.421875 101.660156 C 283.421875 104.980469 274.5625 106.769531 266.230469 106.769531 Z M 266.230469 97.554688 C 256.6875 97.554688 250.039062 99.71875 250.039062 101.660156 C 250.039062 103.605469 256.6875 105.769531 266.230469 105.769531 C 275.769531 105.769531 282.417969 103.605469 282.417969 101.660156 C 282.417969 99.71875 275.769531 97.554688 266.230469 97.554688 Z M 266.230469 97.554688 "/>
<path style=" stroke:none;fill-rule:nonzero;fill:rgb(24.705882%,23.921569%,33.72549%);fill-opacity:1;" d="M 230.675781 130.269531 C 222.34375 130.269531 213.484375 128.480469 213.484375 125.160156 C 213.484375 121.84375 222.34375 120.054688 230.675781 120.054688 C 239.011719 120.054688 247.867188 121.84375 247.867188 125.160156 C 247.867188 128.480469 239.011719 130.269531 230.675781 130.269531 Z M 230.675781 121.054688 C 221.136719 121.054688 214.488281 123.21875 214.488281 125.160156 C 214.488281 127.105469 221.136719 129.269531 230.675781 129.269531 C 240.21875 129.269531 246.867188 127.105469 246.867188 125.160156 C 246.867188 123.21875 240.21875 121.054688 230.675781 121.054688 Z M 230.675781 121.054688 "/>
<path style=" stroke:none;fill-rule:nonzero;fill:rgb(24.705882%,23.921569%,33.72549%);fill-opacity:1;" d="M 156.066406 141.269531 C 147.734375 141.269531 138.875 139.480469 138.875 136.160156 C 138.875 132.84375 147.734375 131.054688 156.066406 131.054688 C 164.398438 131.054688 173.257812 132.84375 173.257812 136.160156 C 173.257812 139.480469 164.398438 141.269531 156.066406 141.269531 Z M 156.066406 132.054688 C 146.527344 132.054688 139.875 134.21875 139.875 136.160156 C 139.875 138.105469 146.527344 140.269531 156.066406 140.269531 C 165.605469 140.269531 172.253906 138.105469 172.253906 136.160156 C 172.253906 134.21875 165.605469 132.054688 156.066406 132.054688 Z M 156.066406 132.054688 "/>
<path style=" stroke:none;fill-rule:nonzero;fill:rgb(18.431373%,18.039216%,25.490196%);fill-opacity:1;" d="M 189.777344 225.351562 C 189.777344 236.953125 180.359375 246.359375 168.738281 246.359375 C 157.121094 246.359375 147.703125 236.953125 147.703125 225.351562 C 147.703125 213.75 157.121094 204.347656 168.738281 204.347656 C 180.359375 204.347656 189.777344 213.75 189.777344 225.351562 Z M 189.777344 225.351562 "/>
<path style=" stroke:none;fill-rule:nonzero;fill:rgb(18.431373%,18.039216%,25.490196%);fill-opacity:1;" d="M 150.5 244.273438 L 160.738281 239.152344 L 163.601562 244.859375 L 153.363281 249.980469 Z M 150.5 244.273438 "/>
<path style=" stroke:none;fill-rule:nonzero;fill:rgb(18.431373%,18.039216%,25.490196%);fill-opacity:1;" d="M 151.367188 244.808594 C 148.910156 243.191406 146.425781 242.625 145.820312 243.546875 C 145.210938 244.464844 146.710938 246.519531 149.167969 248.136719 C 151.621094 249.753906 154.105469 250.320312 154.710938 249.398438 C 155.320312 248.480469 153.820312 246.425781 151.367188 244.808594 Z M 151.367188 244.808594 "/>
<path style=" stroke:none;fill-rule:nonzero;fill:rgb(18.431373%,18.039216%,25.490196%);fill-opacity:1;" d="M 173.878906 244.859375 L 176.738281 239.152344 L 186.976562 244.273438 L 184.117188 249.980469 Z M 173.878906 244.859375 "/>
<path style=" stroke:none;fill-rule:nonzero;fill:rgb(18.431373%,18.039216%,25.490196%);fill-opacity:1;" d="M 191.660156 243.546875 C 191.050781 242.625 188.570312 243.191406 186.113281 244.808594 C 183.65625 246.425781 182.160156 248.480469 182.765625 249.398438 C 183.375 250.320312 185.855469 249.753906 188.3125 248.136719 C 190.769531 246.519531 192.265625 244.464844 191.660156 243.546875 Z M 191.660156 243.546875 "/>
<path style=" stroke:none;fill-rule:nonzero;fill:rgb(100%,100%,100%);fill-opacity:1;" d="M 174.457031 220.214844 C 174.457031 224.179688 171.238281 227.394531 167.265625 227.394531 C 163.296875 227.394531 160.078125 224.179688 160.078125 220.214844 C 160.078125 216.25 163.296875 213.035156 167.265625 213.035156 C 171.238281 213.035156 174.457031 216.25 174.457031 220.214844 Z M 174.457031 220.214844 "/>
<path style=" stroke:none;fill-rule:nonzero;fill:rgb(24.705882%,23.921569%,33.72549%);fill-opacity:1;" d="M 169.003906 215.457031 C 168.066406 214.519531 166.546875 214.511719 165.617188 215.445312 C 164.683594 216.375 164.691406 217.886719 165.628906 218.824219 C 166.566406 219.761719 168.082031 219.769531 169.015625 218.835938 C 169.949219 217.90625 169.941406 216.394531 169.003906 215.457031 Z M 169.003906 215.457031 "/>
<path style=" stroke:none;fill-rule:nonzero;fill:rgb(42.352941%,38.823529%,100%);fill-opacity:1;" d="M 185.335938 202.5 C 185.652344 194.722656 178.9375 188.136719 170.34375 187.789062 C 161.746094 187.4375 154.519531 193.460938 154.203125 201.238281 C 153.886719 209.015625 159.863281 210.78125 168.460938 211.128906 C 177.054688 211.476562 185.019531 210.277344 185.335938 202.5 Z M 185.335938 202.5 "/>
<path style=" stroke:none;fill-rule:nonzero;fill:rgb(18.431373%,18.039216%,25.490196%);fill-opacity:1;" d="M 193.117188 226.234375 C 189.332031 221.832031 185.140625 219.226562 183.757812 220.414062 C 182.375 221.597656 184.320312 226.128906 188.105469 230.53125 C 191.886719 234.929688 196.078125 237.539062 197.460938 236.351562 C 198.84375 235.164062 196.898438 230.636719 193.117188 226.234375 Z M 193.117188 226.234375 "/>
<path style=" stroke:none;fill-rule:nonzero;fill:rgb(18.431373%,18.039216%,25.490196%);fill-opacity:1;" d="M 153.777344 220.414062 C 152.394531 219.226562 148.207031 221.832031 144.421875 226.234375 C 140.636719 230.636719 138.691406 235.164062 140.074219 236.351562 C 141.460938 237.539062 145.648438 234.929688 149.433594 230.53125 C 153.21875 226.128906 155.164062 221.597656 153.777344 220.414062 Z M 153.777344 220.414062 "/>
<path style=" stroke:none;fill-rule:nonzero;fill:rgb(100%,100%,100%);fill-opacity:1;" d="M 174.515625 233.628906 C 174.992188 236.230469 173.265625 238.722656 170.660156 239.195312 C 168.054688 239.667969 165.558594 237.945312 165.085938 235.34375 L 165.082031 235.335938 C 164.613281 232.734375 166.625 231.8125 169.230469 231.34375 C 171.835938 230.871094 174.046875 231.03125 174.515625 233.628906 Z M 174.515625 233.628906 "/>
<path style=" stroke:none;fill-rule:nonzero;fill:rgb(80%,80%,80%);fill-opacity:1;" d="M 133.199219 247.695312 C 132.644531 247.695312 132.195312 247.25 132.195312 246.695312 L 132.195312 187.695312 C 132.195312 187.144531 132.644531 186.695312 133.199219 186.695312 C 133.75 186.695312 134.199219 187.144531 134.199219 187.695312 L 134.199219 246.695312 C 134.199219 247.25 133.75 247.695312 133.199219 247.695312 Z M 133.199219 247.695312 "/>
<path style=" stroke:none;fill-rule:nonzero;fill:rgb(80%,80%,80%);fill-opacity:1;" d="M 118.175781 300.695312 C 117.621094 300.695312 117.175781 300.25 117.175781 299.695312 L 117.175781 256.695312 C 117.175781 256.144531 117.621094 255.695312 118.175781 255.695312 C 118.726562 255.695312 119.175781 256.144531 119.175781 256.695312 L 119.175781 299.695312 C 119.175781 300.25 118.726562 300.695312 118.175781 300.695312 Z M 118.175781 300.695312 "/>
<path style=" stroke:none;fill-rule:nonzero;fill:rgb(80%,80%,80%);fill-opacity:1;" d="M 156.734375 265.195312 C 156.179688 265.195312 155.730469 264.75 155.730469 264.195312 L 155.730469 205.195312 C 155.730469 204.644531 156.179688 204.195312 156.734375 204.195312 C 157.285156 204.195312 157.734375 204.644531 157.734375 205.195312 L 157.734375 264.195312 C 157.734375 264.75 157.285156 265.195312 156.734375 265.195312 Z M 156.734375 265.195312 "/>
<path style=" stroke:none;fill-rule:nonzero;fill:rgb(80%,80%,80%);fill-opacity:1;" d="M 142.210938 307.695312 C 141.65625 307.695312 141.210938 307.25 141.210938 306.695312 L 141.210938 282.695312 C 141.210938 282.144531 141.65625 281.695312 142.210938 281.695312 C 142.765625 281.695312 143.210938 282.144531 143.210938 282.695312 L 143.210938 306.695312 C 143.210938 307.25 142.765625 307.695312 142.210938 307.695312 Z M 142.210938 307.695312 "/>
<path style=" stroke:none;fill-rule:nonzero;fill:rgb(80%,80%,80%);fill-opacity:1;" d="M 162.742188 184.695312 C 162.1875 184.695312 161.738281 184.25 161.738281 183.695312 L 161.738281 159.695312 C 161.738281 159.144531 162.1875 158.695312 162.742188 158.695312 C 163.292969 158.695312 163.742188 159.144531 163.742188 159.695312 L 163.742188 183.695312 C 163.742188 184.25 163.292969 184.695312 162.742188 184.695312 Z M 162.742188 184.695312 "/>
<path style=" stroke:none;fill-rule:nonzero;fill:rgb(80%,80%,80%);fill-opacity:1;" d="M 112.667969 195.195312 C 112.113281 195.195312 111.664062 194.75 111.664062 194.195312 L 111.664062 170.195312 C 111.664062 169.644531 112.113281 169.195312 112.667969 169.195312 C 113.21875 169.195312 113.667969 169.644531 113.667969 170.195312 L 113.667969 194.195312 C 113.667969 194.75 113.21875 195.195312 112.667969 195.195312 Z M 112.667969 195.195312 "/>
<path style=" stroke:none;fill-rule:nonzero;fill:rgb(80%,80%,80%);fill-opacity:1;" d="M 199.796875 197.695312 C 199.242188 197.695312 198.796875 197.25 198.796875 196.695312 L 198.796875 172.695312 C 198.796875 172.144531 199.242188 171.695312 199.796875 171.695312 C 200.347656 171.695312 200.796875 172.144531 200.796875 172.695312 L 200.796875 196.695312 C 200.796875 197.25 200.347656 197.695312 199.796875 197.695312 Z M 199.796875 197.695312 "/>
<path style=" stroke:none;fill-rule:nonzero;fill:rgb(80%,80%,80%);fill-opacity:1;" d="M 197.792969 272.695312 C 197.242188 272.695312 196.792969 272.25 196.792969 271.695312 L 196.792969 242.695312 C 196.792969 242.144531 197.242188 241.695312 197.792969 241.695312 C 198.347656 241.695312 198.796875 242.144531 198.796875 242.695312 L 198.796875 271.695312 C 198.792969 272.25 198.347656 272.695312 197.792969 272.695312 Z M 197.792969 272.695312 "/>
<path style=" stroke:none;fill-rule:nonzero;fill:rgb(80%,80%,80%);fill-opacity:1;" d="M 177.765625 298.195312 C 177.210938 298.195312 176.761719 297.75 176.761719 297.195312 L 176.761719 254.195312 C 176.761719 253.644531 177.210938 253.195312 177.765625 253.195312 C 178.316406 253.195312 178.765625 253.644531 178.765625 254.195312 L 178.765625 297.195312 C 178.765625 297.75 178.316406 298.195312 177.765625 298.195312 Z M 177.765625 298.195312 "/>
<path style=" stroke:none;fill-rule:nonzero;fill:rgb(80%,80%,80%);fill-opacity:1;" d="M 181.769531 224.695312 C 181.214844 224.695312 180.769531 224.25 180.769531 223.695312 L 180.769531 164.695312 C 180.769531 164.144531 181.214844 163.695312 181.769531 163.695312 C 182.324219 163.695312 182.769531 164.144531 182.769531 164.695312 L 182.769531 223.695312 C 182.769531 224.25 182.324219 224.695312 181.769531 224.695312 Z M 181.769531 224.695312 "/>
<path style=" stroke:none;fill-rule:nonzero;fill:rgb(18.431373%,18.039216%,25.490196%);fill-opacity:1;" d="M 300.222656 339.820312 C 296.398438 335.261719 292.136719 332.535156 290.703125 333.734375 C 289.269531 334.933594 291.207031 339.601562 295.03125 344.160156 C 298.855469 348.71875 303.113281 351.445312 304.546875 350.246094 C 305.980469 349.046875 304.042969 344.378906 300.222656 339.820312 Z M 300.222656 339.820312 "/>
<path style=" stroke:none;fill-rule:nonzero;fill:rgb(18.431373%,18.039216%,25.490196%);fill-opacity:1;" d="M 281.507812 317.824219 C 292.808594 321.582031 298.914062 333.777344 295.148438 345.0625 C 291.382812 356.34375 279.167969 362.441406 267.867188 358.679688 C 256.570312 354.917969 250.464844 342.722656 254.230469 331.441406 C 257.996094 320.160156 270.210938 314.0625 281.507812 317.824219 Z M 281.507812 317.824219 "/>
<path style=" stroke:none;fill-rule:nonzero;fill:rgb(18.431373%,18.039216%,25.490196%);fill-opacity:1;" d="M 277.265625 355.152344 L 283.816406 355.152344 L 283.816406 366.871094 L 277.265625 366.871094 Z M 277.265625 355.152344 "/>
<path style=" stroke:none;fill-rule:nonzero;fill:rgb(18.431373%,18.039216%,25.490196%);fill-opacity:1;" d="M 264.160156 355.152344 L 270.714844 355.152344 L 270.714844 366.871094 L 264.160156 366.871094 Z M 264.160156 355.152344 "/>
<path style=" stroke:none;fill-rule:nonzero;fill:rgb(18.431373%,18.039216%,25.490196%);fill-opacity:1;" d="M 283.816406 367.007812 C 283.816406 365.878906 281.371094 364.964844 278.355469 364.964844 C 275.339844 364.964844 272.898438 365.878906 272.898438 367.007812 C 272.898438 368.136719 275.339844 369.050781 278.355469 369.050781 C 281.371094 369.050781 283.816406 368.136719 283.816406 367.007812 Z M 283.816406 367.007812 "/>
<path style=" stroke:none;fill-rule:nonzero;fill:rgb(18.431373%,18.039216%,25.490196%);fill-opacity:1;" d="M 270.714844 366.734375 C 270.714844 365.605469 268.269531 364.691406 265.253906 364.691406 C 262.238281 364.691406 259.792969 365.605469 259.792969 366.734375 C 259.792969 367.863281 262.238281 368.78125 265.253906 368.78125 C 268.269531 368.78125 270.714844 367.863281 270.714844 366.734375 Z M 270.714844 366.734375 "/>
<path style=" stroke:none;fill-rule:nonzero;fill:rgb(80%,80%,80%);fill-opacity:1;" d="M 267.917969 311.183594 C 269.84375 303.4375 278.34375 298.882812 286.902344 301.003906 C 295.460938 303.128906 300.839844 311.125 298.914062 318.867188 C 296.988281 326.613281 290.601562 326.636719 282.039062 324.515625 C 273.480469 322.390625 265.992188 318.925781 267.917969 311.183594 Z M 267.917969 311.183594 "/>
<path style=" stroke:none;fill-rule:nonzero;fill:rgb(18.431373%,18.039216%,25.490196%);fill-opacity:1;" d="M 251.847656 325.207031 C 246.46875 322.65625 241.457031 321.957031 240.65625 323.644531 C 239.855469 325.332031 243.566406 328.765625 248.949219 331.3125 C 254.328125 333.863281 259.339844 334.558594 260.140625 332.875 C 260.941406 331.1875 257.230469 327.753906 251.847656 325.207031 Z M 251.847656 325.207031 "/>
<path style=" stroke:none;fill-rule:nonzero;fill:rgb(100%,100%,100%);fill-opacity:1;" d="M 278.65625 333.707031 C 278.65625 337.671875 275.433594 340.886719 271.464844 340.886719 C 267.492188 340.886719 264.273438 337.671875 264.273438 333.707031 C 264.273438 329.742188 267.492188 326.527344 271.464844 326.527344 C 275.433594 326.527344 278.65625 329.742188 278.65625 333.707031 Z M 278.65625 333.707031 "/>
<path style=" stroke:none;fill-rule:nonzero;fill:rgb(24.705882%,23.921569%,33.72549%);fill-opacity:1;" d="M 270.90625 331.132812 C 270.90625 332.457031 269.832031 333.527344 268.507812 333.527344 C 267.1875 333.527344 266.113281 332.457031 266.113281 331.132812 C 266.113281 329.8125 267.1875 328.742188 268.507812 328.742188 C 269.832031 328.742188 270.90625 329.8125 270.90625 331.132812 Z M 270.90625 331.132812 "/>
<path style=" stroke:none;fill-rule:nonzero;fill:rgb(100%,100%,100%);fill-opacity:1;" d="M 274.40625 348.695312 C 274.40625 350.355469 273.0625 351.695312 271.402344 351.695312 C 269.742188 351.695312 268.398438 350.355469 268.398438 348.695312 C 268.398438 347.039062 269.742188 345.695312 271.402344 345.695312 C 273.0625 345.695312 274.40625 347.039062 274.40625 348.695312 Z M 274.40625 348.695312 "/>
<path style=" stroke:none;fill-rule:nonzero;fill:rgb(24.705882%,23.921569%,33.72549%);fill-opacity:1;" d="M 336.265625 369.195312 L 218.089844 369.195312 C 217.8125 369.195312 217.589844 368.972656 217.589844 368.695312 C 217.589844 368.421875 217.8125 368.195312 218.089844 368.195312 L 336.265625 368.195312 C 336.542969 368.195312 336.765625 368.421875 336.765625 368.695312 C 336.765625 368.972656 336.542969 369.195312 336.265625 369.195312 Z M 336.265625 369.195312 "/>
</g>
</svg>
